<svg width="142" height="33" viewBox="0 0 142 33" fill="none" xmlns="http://www.w3.org/2000/svg">
<path d="M35.18 21H39.88V18L43.06 15.3L47.48 21H53.2L46.44 12.42L53.2 6.64H46.28L39.88 12.34V6.64H35.18V21ZM55.0238 21H59.7237V6.64H55.0238V21ZM62.4456 21H74.3656C77.8856 21 79.2856 19.38 79.2856 17.04C79.2856 14.94 77.7856 13.94 75.9856 13.48C77.4656 12.96 78.4656 11.88 78.4656 10.16C78.4656 8.08 77.2856 6.64 73.5456 6.64H62.4456V21ZM67.1456 17.6V15.24H72.8656C73.6856 15.24 74.4056 15.3 74.4056 16.42C74.4056 17.54 73.7256 17.6 72.8656 17.6H67.1456ZM67.1456 12.38V10.04H72.0656C73.0856 10.04 73.7656 10.1 73.7656 11.18C73.7656 12.3 73.0456 12.38 72.0656 12.38H67.1456ZM90.5088 21.4C96.6488 21.4 100.589 18.42 100.589 13.82C100.589 9.26 96.6488 6.3 90.5088 6.3C84.4088 6.3 80.4488 9.26 80.4488 13.82C80.4488 18.42 84.4088 21.4 90.5088 21.4ZM85.3487 13.82C85.3487 11.66 87.3488 10.24 90.5088 10.24C93.6888 10.24 95.7088 11.66 95.7088 13.82C95.7088 16 93.6888 17.44 90.5088 17.44C87.3688 17.44 85.3487 16 85.3487 13.82ZM102.582 21H114.502C118.022 21 119.422 19.38 119.422 17.04C119.422 14.94 117.922 13.94 116.122 13.48C117.602 12.96 118.602 11.88 118.602 10.16C118.602 8.08 117.422 6.64 113.682 6.64H102.582V21ZM107.282 17.6V15.24H113.002C113.822 15.24 114.542 15.3 114.542 16.42C114.542 17.54 113.862 17.6 113.002 17.6H107.282ZM107.282 12.38V10.04H112.202C113.222 10.04 113.902 10.1 113.902 11.18C113.902 12.3 113.182 12.38 112.202 12.38H107.282ZM130.645 21.4C136.785 21.4 140.725 18.42 140.725 13.82C140.725 9.26 136.785 6.3 130.645 6.3C124.545 6.3 120.585 9.26 120.585 13.82C120.585 18.42 124.545 21.4 130.645 21.4ZM125.485 13.82C125.485 11.66 127.485 10.24 130.645 10.24C133.825 10.24 135.845 11.66 135.845 13.82C135.845 16 133.825 17.44 130.645 17.44C127.505 17.44 125.485 16 125.485 13.82Z" fill="black"/>
<rect x="14.9093" y="1" width="16.4387" height="20.2323" transform="rotate(25 14.9093 1)" fill="#CADFDB"/>
<g filter="url(#filter0_d_81_3)">
<rect x="11.032" y="5" width="12.8296" height="15.7903" transform="rotate(25 11.032 5)" fill="black"/>
</g>
<rect x="8.55054" y="1.78928" width="16.4387" height="20.2323" transform="rotate(25 8.55054 1.78928)" fill="#377666"/>
<defs>
<filter id="filter0_d_81_3" x="0.358704" y="5" width="26.3008" height="27.7329" filterUnits="userSpaceOnUse" color-interpolation-filters="sRGB">
<feFlood flood-opacity="0" result="BackgroundImageFix"/>
<feColorMatrix in="SourceAlpha" type="matrix" values="0 0 0 0 0 0 0 0 0 0 0 0 0 0 0 0 0 0 127 0" result="hardAlpha"/>
<feOffset dy="4"/>
<feGaussianBlur stdDeviation="2"/>
<feComposite in2="hardAlpha" operator="out"/>
<feColorMatrix type="matrix" values="0 0 0 0 0 0 0 0 0 0 0 0 0 0 0 0 0 0 0.25 0"/>
<feBlend mode="normal" in2="BackgroundImageFix" result="effect1_dropShadow_81_3"/>
<feBlend mode="normal" in="SourceGraphic" in2="effect1_dropShadow_81_3" result="shape"/>
</filter>
</defs>
</svg>
